# xmcd CD Database Entry
#
# Track frame offsets:
# 182
# 23532
# 48582
# 67257
# 86682
# 105432
# 125982
# 144732
#
# Disc length: 2253 seconds
#
# Revision: 1
# Processed by: cddbd v1.4PL0 Copyright (c) Steve Scherf et al.
# Submitted via: tcd 2.0b
#
DISCID=7308cb08
DTITLE=The James Blood Ulmer Blues Experience - Blues Allnight
DYEAR=1900
DGENRE=
TTITLE0=Blues Allnight
TTITLE1=Calling Marry
TTITLE2=Peace and Happiness
TTITLE3=She Ain't So Cold
TTITLE4=Changing Times
TTITLE5=Baby Snatcher
TTITLE6=Boss Machine
TTITLE7=I Don't Know Why
EXTD=
EXTT0=
EXTT1=
EXTT2=
EXTT3=
EXTT4=
EXTT5=
EXTT6=
EXTT7=
PLAYORDER=
